# xmcd CD database file
#
# Track frame offsets:
#	150
#	12535
#	25815
#	38090
#	51942
#	66062
#	77642
#	90487
#	101422
#	113817
#	124890
#	138045
#	150905
#	164215
#	177502
#
# Disc length: 2420 seconds
#
# Revision: 0
# Processed by: cddbd v1.4PL0 Copyright (c) Steve Scherf et al.
# Submitted via: CDex 1.50beta8
#
DISCID=bc09720f
DTITLE=Howlin' Wolf - The Best of Howlin' Wolf
DYEAR=1900
DGENRE=Blues
TTITLE0=Baby Ride With Me
TTITLE1=Moanin' At Midnight
TTITLE2=How Many More Years
TTITLE3=Rockin' Daddy
TTITLE4=Smokestack Lightnin'
TTITLE5=Sittin' On Top of The World
TTITLE6=Back Door Man
TTITLE7=Wang Dang Doodle
TTITLE8=Spoonful
TTITLE9=The Red Rooster
TTITLE10=I Ain't Superstitious
TTITLE11=Killing Floor
TTITLE12=New Crawlin' King Snake
TTITLE13=Dust My Broom
TTITLE14=Rolling' And Tumblin'
EXTD=
EXTT0=
EXTT1=
EXTT2=
EXTT3=
EXTT4=
EXTT5=
EXTT6=
EXTT7=
EXTT8=
EXTT9=
EXTT10=
EXTT11=
EXTT12=
EXTT13=
EXTT14=
PLAYORDER=
